<?xml version="1.0" encoding="UTF-8" standalone="no"?>
<svg viewBox="0 0 217 270" version="1.1" xmlns="http://www.w3.org/2000/svg" xmlns:xlink="http://www.w3.org/1999/xlink" xmlns:sketch="http://www.bohemiancoding.com/sketch/ns">
	<style>

		@keyframes star-drop {
			0% { transform: translate(0, -100px); opacity: 0; }
			100% { transform: translate(0, 0); opacity: 1; }
		}

		.star-drop {
			animation: star-drop 0.7s ease-out both;
			animation-delay: 1s;
		}

		@keyframes fade-in {
			0% { opacity: 0; }
			100% { opacity: 1; }
		}

		.star-shadow {
			animation: fade-in 0.7s ease-out both;
			animation-delay: 1s;
		}

		@keyframes appear {
			0% { opacity: 0; }
			100% { opacity: 1; }
		}

		@keyframes hide {
			0% { opacity: 1; }
			100% { opacity: 0; }
		}

		.circle-container {
			animation: appear 0.001s both;
			animation-delay: 2.25s;
		}

		.circle-cover {
			animation: hide 0.001s both;
			animation-delay: 2.5s;
		}

		.star-text {
			animation: appear 0.001s both;
			animation-delay: 2.6s;
		}

		.tar-text {
			animation: hide 0.001s both;
			animation-delay: 2.7s;
		}

		.ar-text {
			animation: hide 0.001s both;
			animation-delay: 2.8s;
		}

		.r-text {
			animation: hide 0.001s both;
			animation-delay: 2.9s;
		}
		
		.stroked {
			stroke-width: 0.5;
		}
	</style>
    <!-- Generator: Sketch 3.4.4 (17249) - http://www.bohemiancoding.com/sketch -->
    <title>Animation</title>
    <desc>Created with Sketch.</desc>
    <defs></defs>
    <g id="Page-3" stroke="none" stroke-width="1" fill="none" fill-rule="evenodd" sketch:type="MSPage">
        <g id="Animation" sketch:type="MSArtboardGroup">
            <g id="Path-75-+-Path-72-+-Path-72" sketch:type="MSLayerGroup" transform="translate(15.000000, 78.000000)" stroke="#979797" class='stroked' fill="#FFFFFF" stroke-linecap="round" stroke-linejoin="round">
                <path d="M7.07267629,107.606895 L47.4660043,63.3731859 L7.07267619,31.0300089 L7.07267629,107.606895 Z" id="Path-75" sketch:type="MSShapeGroup"></path>
                <path d="M7.04991904,107.211452 L0.9796548,103.316772 L0.9796548,25.8923129 L25.6996565,0.815473943 L43.9439765,0.815473128 L133.412667,58.5858998 L133.412667,188.285769 L126.636736,183.938334 L126.636736,157.14174 L7.04991904,80.7390606 L7.04991904,107.211452 Z" id="Path-72" sketch:type="MSShapeGroup"></path>
                <path d="M133.154028,63.050917 L133.154028,123.565401 L190.390367,187.642177 L190.390367,88.4420416 L133.154028,63.050917 Z" id="Path-72" sketch:type="MSShapeGroup" transform="translate(161.772198, 125.346547) scale(-1, 1) translate(-161.772198, -125.346547) "></path>
            </g>
            <path d="M206.900762,80.2240723 L192.690386,169.765344 L11.6836449,169.765344 L25.8940211,80.2240723 L206.900762,80.2240723 Z" id="Rectangle-2" stroke="#979797" class='stroked' stroke-linecap="round" stroke-linejoin="round" fill="#FFFFFF" sketch:type="MSShapeGroup" transform="translate(109.292204, 124.994708) rotate(33.000000) translate(-109.292204, -124.994708) "></path>
            <g id="Group" sketch:type="MSLayerGroup" transform="translate(68.000000, 84.000000)">
				<g class='circle-container'>
	                <path d="M64.7685887,37.8573465 C67.1681043,22.9456583 57.0249842,10.8573465 42.1132959,10.8573465 C27.2016077,10.8573465 13.1681043,22.9456583 10.7685887,37.8573465 C8.36907321,52.7690348 18.5121933,64.8573465 33.4238815,64.8573465 C48.3355698,64.8573465 62.3690732,52.7690348 64.7685887,37.8573465 Z" id="Circle" class='circle' stroke="#00B5FF" stroke-width="2" stroke-dasharray="6" sketch:type="MSShapeGroup" transform="translate(37.768589, 37.857347) rotate(33.000000) translate(-37.768589, -37.857347) "></path>
	                <path d="M64.7685887,37.8573465 C67.1681043,22.9456583 57.0249842,10.8573465 42.1132959,10.8573465 C27.2016077,10.8573465 13.1681043,22.9456583 10.7685887,37.8573465 C8.36907321,52.7690348 18.5121933,64.8573465 33.4238815,64.8573465 C48.3355698,64.8573465 62.3690732,52.7690348 64.7685887,37.8573465 Z" id="CircleCover" class='circle-cover' stroke="#FFFFFF" stroke-width="2" stroke-dasharray="6,18" sketch:type="MSShapeGroup" transform="translate(37.768589, 37.857347) rotate(33.000000) translate(-37.768589, -37.857347) "></path>
				</g>
                <path d="M22.6073932,55.367857 L27.1765161,41.6231786 L18.7567758,31.8891432 L32.879904,29.8838217 L41.063944,17.3785001 L45.2233943,29.8838217 L58.7011495,31.8891432 L47.148703,41.6231786 L47.2943738,55.367857 L35.9951189,48.8785001 L22.6073932,55.367857 Z" id="StarShadow" class='star-shadow' fill="#DBDBDB" sketch:type="MSShapeGroup" transform="translate(38.728963, 36.373179) rotate(33.000000) translate(-38.728963, -36.373179) "></path>
                <g class='star-drop'>
					<g id="Star" transform="translate(11.000000, 8.000000)" sketch:type="MSShapeGroup">
                    <path d="M11.8407546,47.4369818 L11.3145754,46.5588747 L16.4098775,33.6923033 L7.99013716,23.958268 L22.1132653,21.9529465 L29.7633248,8.59068541 L30.2973053,9.4476249 L34.4567556,21.9529465 L47.376632,23.0921966 L47.9345108,23.958268 L36.3820643,33.6923033 L36.5277352,47.4369818 L25.2284803,40.9476249 L11.8407546,47.4369818 Z" id="Star-1" fill="#900040" transform="translate(27.962324, 28.013834) rotate(33.000000) translate(-27.962324, -28.013834) "></path>
                    <path d="M11.6073932,46.367857 L16.1765161,32.6231786 L7.75677581,22.8891432 L21.879904,20.8838217 L30.063944,8.37850012 L34.2233943,20.8838217 L47.7011495,22.8891432 L36.148703,32.6231786 L36.2943738,46.367857 L24.9951189,39.8785001 L11.6073932,46.367857 Z" id="Star-1" fill="#FF0071" transform="translate(27.728963, 27.373179) rotate(33.000000) translate(-27.728963, -27.373179) "></path>
                	</g>
				</g>
				<g class='star-text-container'>
	                <path d="M74.0765679,36.8785001 L75.1390679,36.8785001 L74.9680956,37.9410001 L73.9055956,37.9410001 L74.0765679,36.8785001 Z M75.1390679,36.8785001 L76.2015679,36.8785001 L76.0305956,37.9410001 L74.9680956,37.9410001 L75.1390679,36.8785001 Z M76.2015679,36.8785001 L77.2640679,36.8785001 L77.0930956,37.9410001 L76.0305956,37.9410001 L76.2015679,36.8785001 Z M77.2640679,36.8785001 L78.3265679,36.8785001 L78.1555956,37.9410001 L77.0930956,37.9410001 L77.2640679,36.8785001 Z M72.8430956,37.9410001 L73.9055956,37.9410001 L73.7346233,39.0035001 L72.6721233,39.0035001 L72.8430956,37.9410001 Z M72.6721233,39.0035001 L73.7346233,39.0035001 L73.5636511,40.0660001 L72.5011511,40.0660001 L72.6721233,39.0035001 Z M73.5636511,40.0660001 L74.6261511,40.0660001 L74.4551788,41.1285001 L73.3926788,41.1285001 L73.5636511,40.0660001 Z M74.6261511,40.0660001 L75.6886511,40.0660001 L75.5176788,41.1285001 L74.4551788,41.1285001 L74.6261511,40.0660001 Z M75.6886511,40.0660001 L76.7511511,40.0660001 L76.5801788,41.1285001 L75.5176788,41.1285001 L75.6886511,40.0660001 Z M76.5801788,41.1285001 L77.6426788,41.1285001 L77.4717065,42.1910001 L76.4092065,42.1910001 L76.5801788,41.1285001 Z M76.4092065,42.1910001 L77.4717065,42.1910001 L77.3007342,43.2535001 L76.2382342,43.2535001 L76.4092065,42.1910001 Z M76.2382342,43.2535001 L77.3007342,43.2535001 L77.129762,44.3160001 L76.067262,44.3160001 L76.2382342,43.2535001 Z M71.817262,44.3160001 L72.879762,44.3160001 L72.7087897,45.3785001 L71.6462897,45.3785001 L71.817262,44.3160001 Z M72.879762,44.3160001 L73.942262,44.3160001 L73.7712897,45.3785001 L72.7087897,45.3785001 L72.879762,44.3160001 Z M73.942262,44.3160001 L75.004762,44.3160001 L74.8337897,45.3785001 L73.7712897,45.3785001 L73.942262,44.3160001 Z M75.004762,44.3160001 L76.067262,44.3160001 L75.8962897,45.3785001 L74.8337897,45.3785001 L75.004762,44.3160001 Z M80.0265679,36.8785001 L81.0890679,36.8785001 L80.9180956,37.9410001 L79.8555956,37.9410001 L80.0265679,36.8785001 Z M81.0890679,36.8785001 L82.1515679,36.8785001 L81.9805956,37.9410001 L80.9180956,37.9410001 L81.0890679,36.8785001 Z M82.1515679,36.8785001 L83.2140679,36.8785001 L83.0430956,37.9410001 L81.9805956,37.9410001 L82.1515679,36.8785001 Z M83.2140679,36.8785001 L84.2765679,36.8785001 L84.1055956,37.9410001 L83.0430956,37.9410001 L83.2140679,36.8785001 Z M84.2765679,36.8785001 L85.3390679,36.8785001 L85.1680956,37.9410001 L84.1055956,37.9410001 L84.2765679,36.8785001 Z M81.9805956,37.9410001 L83.0430956,37.9410001 L82.8721233,39.0035001 L81.8096233,39.0035001 L81.9805956,37.9410001 Z M81.8096233,39.0035001 L82.8721233,39.0035001 L82.701151,40.0660001 L81.638651,40.0660001 L81.8096233,39.0035001 Z M81.638651,40.0660001 L82.701151,40.0660001 L82.5301788,41.1285001 L81.4676788,41.1285001 L81.638651,40.0660001 Z M81.4676788,41.1285001 L82.5301788,41.1285001 L82.3592065,42.1910001 L81.2967065,42.1910001 L81.4676788,41.1285001 Z M81.2967065,42.1910001 L82.3592065,42.1910001 L82.1882342,43.2535001 L81.1257342,43.2535001 L81.2967065,42.1910001 Z M81.1257342,43.2535001 L82.1882342,43.2535001 L82.017262,44.3160001 L80.954762,44.3160001 L81.1257342,43.2535001 Z M80.954762,44.3160001 L82.017262,44.3160001 L81.8462897,45.3785001 L80.7837897,45.3785001 L80.954762,44.3160001 Z M88.1015679,36.8785001 L89.1640679,36.8785001 L88.9930956,37.9410001 L87.9305956,37.9410001 L88.1015679,36.8785001 Z M89.1640679,36.8785001 L90.2265679,36.8785001 L90.0555956,37.9410001 L88.9930956,37.9410001 L89.1640679,36.8785001 Z M90.2265679,36.8785001 L91.2890679,36.8785001 L91.1180956,37.9410001 L90.0555956,37.9410001 L90.2265679,36.8785001 Z M86.8680956,37.9410001 L87.9305956,37.9410001 L87.7596233,39.0035001 L86.6971233,39.0035001 L86.8680956,37.9410001 Z M91.1180956,37.9410001 L92.1805956,37.9410001 L92.0096233,39.0035001 L90.9471233,39.0035001 L91.1180956,37.9410001 Z M86.6971233,39.0035001 L87.7596233,39.0035001 L87.588651,40.0660001 L86.526151,40.0660001 L86.6971233,39.0035001 Z M90.9471233,39.0035001 L92.0096233,39.0035001 L91.838651,40.0660001 L90.776151,40.0660001 L90.9471233,39.0035001 Z M86.526151,40.0660001 L87.588651,40.0660001 L87.4176788,41.1285001 L86.3551788,41.1285001 L86.526151,40.0660001 Z M90.776151,40.0660001 L91.838651,40.0660001 L91.6676788,41.1285001 L90.6051788,41.1285001 L90.776151,40.0660001 Z M86.3551788,41.1285001 L87.4176788,41.1285001 L87.2467065,42.1910001 L86.1842065,42.1910001 L86.3551788,41.1285001 Z M87.4176788,41.1285001 L88.4801788,41.1285001 L88.3092065,42.1910001 L87.2467065,42.1910001 L87.4176788,41.1285001 Z M88.4801788,41.1285001 L89.5426788,41.1285001 L89.3717065,42.1910001 L88.3092065,42.1910001 L88.4801788,41.1285001 Z M89.5426788,41.1285001 L90.6051788,41.1285001 L90.4342065,42.1910001 L89.3717065,42.1910001 L89.5426788,41.1285001 Z M90.6051788,41.1285001 L91.6676788,41.1285001 L91.4967065,42.1910001 L90.4342065,42.1910001 L90.6051788,41.1285001 Z M86.1842065,42.1910001 L87.2467065,42.1910001 L87.0757342,43.2535001 L86.0132342,43.2535001 L86.1842065,42.1910001 Z M90.4342065,42.1910001 L91.4967065,42.1910001 L91.3257342,43.2535001 L90.2632342,43.2535001 L90.4342065,42.1910001 Z M86.0132342,43.2535001 L87.0757342,43.2535001 L86.9047619,44.3160001 L85.8422619,44.3160001 L86.0132342,43.2535001 Z M90.2632342,43.2535001 L91.3257342,43.2535001 L91.1547619,44.3160001 L90.0922619,44.3160001 L90.2632342,43.2535001 Z M85.8422619,44.3160001 L86.9047619,44.3160001 L86.7337897,45.3785001 L85.6712897,45.3785001 L85.8422619,44.3160001 Z M90.0922619,44.3160001 L91.1547619,44.3160001 L90.9837897,45.3785001 L89.9212897,45.3785001 L90.0922619,44.3160001 Z M94.0515678,36.8785001 L95.1140678,36.8785001 L94.9430956,37.9410001 L93.8805956,37.9410001 L94.0515678,36.8785001 Z M95.1140678,36.8785001 L96.1765678,36.8785001 L96.0055956,37.9410001 L94.9430956,37.9410001 L95.1140678,36.8785001 Z M96.1765678,36.8785001 L97.2390678,36.8785001 L97.0680956,37.9410001 L96.0055956,37.9410001 L96.1765678,36.8785001 Z M93.8805956,37.9410001 L94.9430956,37.9410001 L94.7721233,39.0035001 L93.7096233,39.0035001 L93.8805956,37.9410001 Z M97.0680956,37.9410001 L98.1305956,37.9410001 L97.9596233,39.0035001 L96.8971233,39.0035001 L97.0680956,37.9410001 Z M93.7096233,39.0035001 L94.7721233,39.0035001 L94.601151,40.0660001 L93.538651,40.0660001 L93.7096233,39.0035001 Z M96.8971233,39.0035001 L97.9596233,39.0035001 L97.788651,40.0660001 L96.726151,40.0660001 L96.8971233,39.0035001 Z M93.538651,40.0660001 L94.601151,40.0660001 L94.4301787,41.1285001 L93.3676787,41.1285001 L93.538651,40.0660001 Z M96.726151,40.0660001 L97.788651,40.0660001 L97.6176787,41.1285001 L96.5551787,41.1285001 L96.726151,40.0660001 Z M93.3676787,41.1285001 L94.4301787,41.1285001 L94.2592065,42.1910001 L93.1967065,42.1910001 L93.3676787,41.1285001 Z M94.4301787,41.1285001 L95.4926787,41.1285001 L95.3217065,42.1910001 L94.2592065,42.1910001 L94.4301787,41.1285001 Z M95.4926787,41.1285001 L96.5551787,41.1285001 L96.3842065,42.1910001 L95.3217065,42.1910001 L95.4926787,41.1285001 Z M93.1967065,42.1910001 L94.2592065,42.1910001 L94.0882342,43.2535001 L93.0257342,43.2535001 L93.1967065,42.1910001 Z M96.3842065,42.1910001 L97.4467065,42.1910001 L97.2757342,43.2535001 L96.2132342,43.2535001 L96.3842065,42.1910001 Z M93.0257342,43.2535001 L94.0882342,43.2535001 L93.9172619,44.3160001 L92.8547619,44.3160001 L93.0257342,43.2535001 Z M97.2757342,43.2535001 L98.3382342,43.2535001 L98.1672619,44.3160001 L97.1047619,44.3160001 L97.2757342,43.2535001 Z M92.8547619,44.3160001 L93.9172619,44.3160001 L93.7462897,45.3785001 L92.6837897,45.3785001 L92.8547619,44.3160001 Z M97.1047619,44.3160001 L98.1672619,44.3160001 L97.9962897,45.3785001 L96.9337897,45.3785001 L97.1047619,44.3160001 Z" class="star-text" fill="#00B5FF" sketch:type="MSShapeGroup" transform="translate(84.992262, 41.128500) rotate(33.000000) translate(-84.992262, -41.128500) "></path>
	                <path d="M79.3643665,39.1140543 L80.4268665,39.1140543 L80.2558943,40.1765543 L79.1933943,40.1765543 L79.3643665,39.1140543 Z M80.4268665,39.1140543 L81.4893665,39.1140543 L81.3183943,40.1765543 L80.2558943,40.1765543 L80.4268665,39.1140543 Z M81.4893665,39.1140543 L82.5518665,39.1140543 L82.3808943,40.1765543 L81.3183943,40.1765543 L81.4893665,39.1140543 Z M82.5518665,39.1140543 L83.6143665,39.1140543 L83.4433943,40.1765543 L82.3808943,40.1765543 L82.5518665,39.1140543 Z M83.6143665,39.1140543 L84.6768665,39.1140543 L84.5058943,40.1765543 L83.4433943,40.1765543 L83.6143665,39.1140543 Z M81.3183943,40.1765543 L82.3808943,40.1765543 L82.209922,41.2390543 L81.147422,41.2390543 L81.3183943,40.1765543 Z M81.147422,41.2390543 L82.209922,41.2390543 L82.0389497,42.3015543 L80.9764497,42.3015543 L81.147422,41.2390543 Z M80.9764497,42.3015543 L82.0389497,42.3015543 L81.8679774,43.3640543 L80.8054774,43.3640543 L80.9764497,42.3015543 Z M80.8054774,43.3640543 L81.8679774,43.3640543 L81.6970052,44.4265543 L80.6345052,44.4265543 L80.8054774,43.3640543 Z M80.6345052,44.4265543 L81.6970052,44.4265543 L81.5260329,45.4890543 L80.4635329,45.4890543 L80.6345052,44.4265543 Z M80.4635329,45.4890543 L81.5260329,45.4890543 L81.3550606,46.5515543 L80.2925606,46.5515543 L80.4635329,45.4890543 Z M80.2925606,46.5515543 L81.3550606,46.5515543 L81.1840883,47.6140543 L80.1215883,47.6140543 L80.2925606,46.5515543 Z M87.4393665,39.1140543 L88.5018665,39.1140543 L88.3308943,40.1765543 L87.2683943,40.1765543 L87.4393665,39.1140543 Z M88.5018665,39.1140543 L89.5643665,39.1140543 L89.3933943,40.1765543 L88.3308943,40.1765543 L88.5018665,39.1140543 Z M89.5643665,39.1140543 L90.6268665,39.1140543 L90.4558943,40.1765543 L89.3933943,40.1765543 L89.5643665,39.1140543 Z M86.2058943,40.1765543 L87.2683943,40.1765543 L87.097422,41.2390543 L86.034922,41.2390543 L86.2058943,40.1765543 Z M90.4558943,40.1765543 L91.5183943,40.1765543 L91.347422,41.2390543 L90.284922,41.2390543 L90.4558943,40.1765543 Z M86.034922,41.2390543 L87.097422,41.2390543 L86.9264497,42.3015543 L85.8639497,42.3015543 L86.034922,41.2390543 Z M90.284922,41.2390543 L91.347422,41.2390543 L91.1764497,42.3015543 L90.1139497,42.3015543 L90.284922,41.2390543 Z M85.8639497,42.3015543 L86.9264497,42.3015543 L86.7554774,43.3640543 L85.6929774,43.3640543 L85.8639497,42.3015543 Z M90.1139497,42.3015543 L91.1764497,42.3015543 L91.0054774,43.3640543 L89.9429774,43.3640543 L90.1139497,42.3015543 Z M85.6929774,43.3640543 L86.7554774,43.3640543 L86.5845052,44.4265543 L85.5220052,44.4265543 L85.6929774,43.3640543 Z M86.7554774,43.3640543 L87.8179774,43.3640543 L87.6470052,44.4265543 L86.5845052,44.4265543 L86.7554774,43.3640543 Z M87.8179774,43.3640543 L88.8804774,43.3640543 L88.7095052,44.4265543 L87.6470052,44.4265543 L87.8179774,43.3640543 Z M88.8804774,43.3640543 L89.9429774,43.3640543 L89.7720052,44.4265543 L88.7095052,44.4265543 L88.8804774,43.3640543 Z M89.9429774,43.3640543 L91.0054774,43.3640543 L90.8345052,44.4265543 L89.7720052,44.4265543 L89.9429774,43.3640543 Z M85.5220052,44.4265543 L86.5845052,44.4265543 L86.4135329,45.4890543 L85.3510329,45.4890543 L85.5220052,44.4265543 Z M89.7720052,44.4265543 L90.8345052,44.4265543 L90.6635329,45.4890543 L89.6010329,45.4890543 L89.7720052,44.4265543 Z M85.3510329,45.4890543 L86.4135329,45.4890543 L86.2425606,46.5515543 L85.1800606,46.5515543 L85.3510329,45.4890543 Z M89.6010329,45.4890543 L90.6635329,45.4890543 L90.4925606,46.5515543 L89.4300606,46.5515543 L89.6010329,45.4890543 Z M85.1800606,46.5515543 L86.2425606,46.5515543 L86.0715883,47.6140543 L85.0090883,47.6140543 L85.1800606,46.5515543 Z M89.4300606,46.5515543 L90.4925606,46.5515543 L90.3215883,47.6140543 L89.2590883,47.6140543 L89.4300606,46.5515543 Z M93.3893665,39.1140543 L94.4518665,39.1140543 L94.2808942,40.1765543 L93.2183942,40.1765543 L93.3893665,39.1140543 Z M94.4518665,39.1140543 L95.5143665,39.1140543 L95.3433942,40.1765543 L94.2808942,40.1765543 L94.4518665,39.1140543 Z M95.5143665,39.1140543 L96.5768665,39.1140543 L96.4058942,40.1765543 L95.3433942,40.1765543 L95.5143665,39.1140543 Z M93.2183942,40.1765543 L94.2808942,40.1765543 L94.109922,41.2390543 L93.047422,41.2390543 L93.2183942,40.1765543 Z M96.4058942,40.1765543 L97.4683942,40.1765543 L97.297422,41.2390543 L96.234922,41.2390543 L96.4058942,40.1765543 Z M93.047422,41.2390543 L94.109922,41.2390543 L93.9389497,42.3015543 L92.8764497,42.3015543 L93.047422,41.2390543 Z M96.234922,41.2390543 L97.297422,41.2390543 L97.1264497,42.3015543 L96.0639497,42.3015543 L96.234922,41.2390543 Z M92.8764497,42.3015543 L93.9389497,42.3015543 L93.7679774,43.3640543 L92.7054774,43.3640543 L92.8764497,42.3015543 Z M96.0639497,42.3015543 L97.1264497,42.3015543 L96.9554774,43.3640543 L95.8929774,43.3640543 L96.0639497,42.3015543 Z M92.7054774,43.3640543 L93.7679774,43.3640543 L93.5970051,44.4265543 L92.5345051,44.4265543 L92.7054774,43.3640543 Z M93.7679774,43.3640543 L94.8304774,43.3640543 L94.6595051,44.4265543 L93.5970051,44.4265543 L93.7679774,43.3640543 Z M94.8304774,43.3640543 L95.8929774,43.3640543 L95.7220051,44.4265543 L94.6595051,44.4265543 L94.8304774,43.3640543 Z M92.5345051,44.4265543 L93.5970051,44.4265543 L93.4260329,45.4890543 L92.3635329,45.4890543 L92.5345051,44.4265543 Z M95.7220051,44.4265543 L96.7845051,44.4265543 L96.6135329,45.4890543 L95.5510329,45.4890543 L95.7220051,44.4265543 Z M92.3635329,45.4890543 L93.4260329,45.4890543 L93.2550606,46.5515543 L92.1925606,46.5515543 L92.3635329,45.4890543 Z M96.6135329,45.4890543 L97.6760329,45.4890543 L97.5050606,46.5515543 L96.4425606,46.5515543 L96.6135329,45.4890543 Z M92.1925606,46.5515543 L93.2550606,46.5515543 L93.0840883,47.6140543 L92.0215883,47.6140543 L92.1925606,46.5515543 Z M96.4425606,46.5515543 L97.5050606,46.5515543 L97.3340883,47.6140543 L96.2715883,47.6140543 L96.4425606,46.5515543 Z" class="tar-text" fill="#ffffff" sketch:type="MSShapeGroup" transform="translate(88.434714, 43.364054) rotate(33.000000) translate(-88.434714, -43.364054) "></path>
	                <path d="M86.9702452,40.6977813 L88.0327452,40.6977813 L87.8617729,41.7602813 L86.7992729,41.7602813 L86.9702452,40.6977813 Z M88.0327452,40.6977813 L89.0952452,40.6977813 L88.9242729,41.7602813 L87.8617729,41.7602813 L88.0327452,40.6977813 Z M89.0952452,40.6977813 L90.1577452,40.6977813 L89.9867729,41.7602813 L88.9242729,41.7602813 L89.0952452,40.6977813 Z M85.7367729,41.7602813 L86.7992729,41.7602813 L86.6283007,42.8227813 L85.5658007,42.8227813 L85.7367729,41.7602813 Z M89.9867729,41.7602813 L91.0492729,41.7602813 L90.8783007,42.8227813 L89.8158007,42.8227813 L89.9867729,41.7602813 Z M85.5658007,42.8227813 L86.6283007,42.8227813 L86.4573284,43.8852813 L85.3948284,43.8852813 L85.5658007,42.8227813 Z M89.8158007,42.8227813 L90.8783007,42.8227813 L90.7073284,43.8852813 L89.6448284,43.8852813 L89.8158007,42.8227813 Z M85.3948284,43.8852813 L86.4573284,43.8852813 L86.2863561,44.9477813 L85.2238561,44.9477813 L85.3948284,43.8852813 Z M89.6448284,43.8852813 L90.7073284,43.8852813 L90.5363561,44.9477813 L89.4738561,44.9477813 L89.6448284,43.8852813 Z M85.2238561,44.9477813 L86.2863561,44.9477813 L86.1153838,46.0102813 L85.0528838,46.0102813 L85.2238561,44.9477813 Z M86.2863561,44.9477813 L87.3488561,44.9477813 L87.1778838,46.0102813 L86.1153838,46.0102813 L86.2863561,44.9477813 Z M87.3488561,44.9477813 L88.4113561,44.9477813 L88.2403838,46.0102813 L87.1778838,46.0102813 L87.3488561,44.9477813 Z M88.4113561,44.9477813 L89.4738561,44.9477813 L89.3028838,46.0102813 L88.2403838,46.0102813 L88.4113561,44.9477813 Z M89.4738561,44.9477813 L90.5363561,44.9477813 L90.3653838,46.0102813 L89.3028838,46.0102813 L89.4738561,44.9477813 Z M85.0528838,46.0102813 L86.1153838,46.0102813 L85.9444116,47.0727813 L84.8819116,47.0727813 L85.0528838,46.0102813 Z M89.3028838,46.0102813 L90.3653838,46.0102813 L90.1944116,47.0727813 L89.1319116,47.0727813 L89.3028838,46.0102813 Z M84.8819116,47.0727813 L85.9444116,47.0727813 L85.7734393,48.1352813 L84.7109393,48.1352813 L84.8819116,47.0727813 Z M89.1319116,47.0727813 L90.1944116,47.0727813 L90.0234393,48.1352813 L88.9609393,48.1352813 L89.1319116,47.0727813 Z M84.7109393,48.1352813 L85.7734393,48.1352813 L85.602467,49.1977813 L84.539967,49.1977813 L84.7109393,48.1352813 Z M88.9609393,48.1352813 L90.0234393,48.1352813 L89.852467,49.1977813 L88.789967,49.1977813 L88.9609393,48.1352813 Z M92.9202452,40.6977813 L93.9827452,40.6977813 L93.8117729,41.7602813 L92.7492729,41.7602813 L92.9202452,40.6977813 Z M93.9827452,40.6977813 L95.0452452,40.6977813 L94.8742729,41.7602813 L93.8117729,41.7602813 L93.9827452,40.6977813 Z M95.0452452,40.6977813 L96.1077452,40.6977813 L95.9367729,41.7602813 L94.8742729,41.7602813 L95.0452452,40.6977813 Z M92.7492729,41.7602813 L93.8117729,41.7602813 L93.6408007,42.8227813 L92.5783007,42.8227813 L92.7492729,41.7602813 Z M95.9367729,41.7602813 L96.9992729,41.7602813 L96.8283007,42.8227813 L95.7658007,42.8227813 L95.9367729,41.7602813 Z M92.5783007,42.8227813 L93.6408007,42.8227813 L93.4698284,43.8852813 L92.4073284,43.8852813 L92.5783007,42.8227813 Z M95.7658007,42.8227813 L96.8283007,42.8227813 L96.6573284,43.8852813 L95.5948284,43.8852813 L95.7658007,42.8227813 Z M92.4073284,43.8852813 L93.4698284,43.8852813 L93.2988561,44.9477813 L92.2363561,44.9477813 L92.4073284,43.8852813 Z M95.5948284,43.8852813 L96.6573284,43.8852813 L96.4863561,44.9477813 L95.4238561,44.9477813 L95.5948284,43.8852813 Z M92.2363561,44.9477813 L93.2988561,44.9477813 L93.1278838,46.0102813 L92.0653838,46.0102813 L92.2363561,44.9477813 Z M93.2988561,44.9477813 L94.3613561,44.9477813 L94.1903838,46.0102813 L93.1278838,46.0102813 L93.2988561,44.9477813 Z M94.3613561,44.9477813 L95.4238561,44.9477813 L95.2528838,46.0102813 L94.1903838,46.0102813 L94.3613561,44.9477813 Z M92.0653838,46.0102813 L93.1278838,46.0102813 L92.9569116,47.0727813 L91.8944116,47.0727813 L92.0653838,46.0102813 Z M95.2528838,46.0102813 L96.3153838,46.0102813 L96.1444116,47.0727813 L95.0819116,47.0727813 L95.2528838,46.0102813 Z M91.8944116,47.0727813 L92.9569116,47.0727813 L92.7859393,48.1352813 L91.7234393,48.1352813 L91.8944116,47.0727813 Z M96.1444116,47.0727813 L97.2069116,47.0727813 L97.0359393,48.1352813 L95.9734393,48.1352813 L96.1444116,47.0727813 Z M91.7234393,48.1352813 L92.7859393,48.1352813 L92.614967,49.1977813 L91.552467,49.1977813 L91.7234393,48.1352813 Z M95.9734393,48.1352813 L97.0359393,48.1352813 L96.864967,49.1977813 L95.802467,49.1977813 L95.9734393,48.1352813 Z" class="ar-text" fill="#ffffff" sketch:type="MSShapeGroup" transform="translate(90.873439, 44.947781) rotate(33.000000) translate(-90.873439, -44.947781) "></path>
	                <path d="M92.3545839,42.607422 L93.4170839,42.607422 L93.2461116,43.669922 L92.1836116,43.669922 L92.3545839,42.607422 Z M93.4170839,42.607422 L94.4795839,42.607422 L94.3086116,43.669922 L93.2461116,43.669922 L93.4170839,42.607422 Z M94.4795839,42.607422 L95.5420839,42.607422 L95.3711116,43.669922 L94.3086116,43.669922 L94.4795839,42.607422 Z M92.1836116,43.669922 L93.2461116,43.669922 L93.0751393,44.732422 L92.0126393,44.732422 L92.1836116,43.669922 Z M95.3711116,43.669922 L96.4336116,43.669922 L96.2626393,44.732422 L95.2001393,44.732422 L95.3711116,43.669922 Z M92.0126393,44.732422 L93.0751393,44.732422 L92.9041671,45.794922 L91.8416671,45.794922 L92.0126393,44.732422 Z M95.2001393,44.732422 L96.2626393,44.732422 L96.0916671,45.794922 L95.0291671,45.794922 L95.2001393,44.732422 Z M91.8416671,45.794922 L92.9041671,45.794922 L92.7331948,46.857422 L91.6706948,46.857422 L91.8416671,45.794922 Z M95.0291671,45.794922 L96.0916671,45.794922 L95.9206948,46.857422 L94.8581948,46.857422 L95.0291671,45.794922 Z M91.6706948,46.857422 L92.7331948,46.857422 L92.5622225,47.919922 L91.4997225,47.919922 L91.6706948,46.857422 Z M92.7331948,46.857422 L93.7956948,46.857422 L93.6247225,47.919922 L92.5622225,47.919922 L92.7331948,46.857422 Z M93.7956948,46.857422 L94.8581948,46.857422 L94.6872225,47.919922 L93.6247225,47.919922 L93.7956948,46.857422 Z M91.4997225,47.919922 L92.5622225,47.919922 L92.3912502,48.982422 L91.3287502,48.982422 L91.4997225,47.919922 Z M94.6872225,47.919922 L95.7497225,47.919922 L95.5787502,48.982422 L94.5162502,48.982422 L94.6872225,47.919922 Z M91.3287502,48.982422 L92.3912502,48.982422 L92.220278,50.044922 L91.157778,50.044922 L91.3287502,48.982422 Z M95.5787502,48.982422 L96.6412502,48.982422 L96.470278,50.044922 L95.407778,50.044922 L95.5787502,48.982422 Z M91.157778,50.044922 L92.220278,50.044922 L92.0493057,51.107422 L90.9868057,51.107422 L91.157778,50.044922 Z M95.407778,50.044922 L96.470278,50.044922 L96.2993057,51.107422 L95.2368057,51.107422 L95.407778,50.044922 Z" class="r-text" fill="#ffffff" sketch:type="MSShapeGroup" transform="translate(93.814028, 46.857422) rotate(33.000000) translate(-93.814028, -46.857422) "></path>
				</g>
            </g>
        </g>
    </g>
</svg>